# xmcd CD database file
#
# Track frame offsets:
#	150
#	12061
#	25520
#	35236
#	44679
#	58158
#	72829
#	84888
#	98331
#	112796
#	125438
#	137568
#	152778
#	166012
#	180277
#	194172
#	204012
#	217365
#	230242
#	241280
#
# Disc length: 3382 seconds
#
# Revision: 0
# Processed by: cddbd v1.5.1PL0 Copyright (c) Steve Scherf et al.
# Submitted via: CDex 1.51
#
DISCID=090d3414
DTITLE=Howlin' Wolf - My Troubles And Me
DYEAR=1900
DGENRE=Blues
TTITLE0=Baby Ride With Me
TTITLE1=California Boogie
TTITLE2=Look A Here Baby
TTITLE3=Smile At Me
TTITLE4=My Baby Walked Off
TTITLE5=My Troubles And Me
TTITLE6=Chocolate Drop
TTITLE7=Everybody's In The Mood
TTITLE8=Color And Kind
TTITLE9=Bluebird
TTITLE10=Dorothy Mae
TTITLE11=Sweet Woman (I Got A Woman)
TTITLE12=Well That's All Right
TTITLE13=Decoration Day
TTITLE14=Drinkin' C. V. Wine
TTITLE15=Come Back Home
TTITLE16=California Blues
TTITLE17=How Many More Years
TTITLE18=Mr. Highway Man
TTITLE19=Oh Red
EXTD=
EXTT0=
EXTT1=
EXTT2=
EXTT3=
EXTT4=
EXTT5=
EXTT6=
EXTT7=
EXTT8=
EXTT9=
EXTT10=
EXTT11=
EXTT12=
EXTT13=
EXTT14=
EXTT15=
EXTT16=
EXTT17=
EXTT18=
EXTT19=
PLAYORDER=
